<svg width="212" height="212" viewBox="0 0 212 212" fill="none" xmlns="http://www.w3.org/2000/svg">
<rect width="212" height="212" rx="27" fill="url(#paint0_linear_47_1508)"/>
<path fill-rule="evenodd" clip-rule="evenodd" d="M110.243 30.7574C107.9 28.4143 104.101 28.4143 101.758 30.7574L77.4099 55.105C72.8177 59.6972 77.7782 67.2953 83.8298 64.9387L103.823 57.1529C105.223 56.6076 106.777 56.6076 108.177 57.1529L128.171 64.9387C134.222 67.2953 139.183 59.6972 134.59 55.105L110.243 30.7574ZM139.499 83.3338C132.972 75.7397 120.299 67.4432 101.675 71.3686C74.7826 77.0366 68.3707 93.6111 63.687 105.718C63.226 106.91 62.7816 108.059 62.3362 109.149C61.9852 110.008 61.6413 110.854 61.3029 111.687C56.8493 122.641 53.3539 131.238 47.2824 137.025C46.1893 138.067 45.128 139.045 44.1217 139.973C39.1146 144.589 35.4718 147.947 36.0631 151.599C36.1388 152.067 36.1999 152.486 36.2555 152.867C36.7214 156.061 36.7948 156.564 41.7435 160.231C47.2824 164.334 66.4544 175.513 81.0821 180.041C95.7098 184.569 111.19 185.276 116.87 184.569C118.349 184.385 119.616 184.296 120.688 184.222C123.737 184.009 125.218 183.906 125.533 182.022C125.58 181.741 125.632 181.446 125.686 181.14C126.121 178.668 126.671 175.545 125.533 174.664C125.37 174.537 125.163 174.383 124.922 174.204C123.277 172.98 120.061 170.587 118.574 167.872C118.445 167.635 118.312 167.398 118.177 167.159C116.536 164.244 114.704 160.988 117.722 154.712C120.989 147.92 128.374 145.373 132.492 146.222C136.611 147.071 140.587 149.194 143.569 153.863C145.733 157.251 145.729 161.086 145.726 163.422C145.725 164.306 145.725 164.975 145.842 165.325C145.908 165.522 145.963 165.742 146.022 165.975C146.342 167.244 146.751 168.862 149.392 168.862C150.037 168.862 150.609 168.88 151.124 168.897C153.103 168.959 154.23 168.995 155.357 167.872C155.466 167.763 155.612 167.623 155.789 167.452C157.929 165.394 164.707 158.872 167.854 149.335C171.263 139.006 170.126 131.223 168.99 126.412C167.854 121.601 165.866 118.771 164.162 116.649C163.608 115.959 162.754 115.194 161.893 114.423C160.104 112.821 158.282 111.19 159.049 110.14C159.27 109.837 160.045 109.052 161.142 107.94C165.685 103.338 175.756 93.1354 174.955 88.3486C174.138 83.4652 172.938 82.4034 171.354 81.0024C171.01 80.6985 170.648 80.3785 170.269 80.0001C169.809 79.5423 169.171 78.795 168.414 77.9071C165.658 74.678 161.316 69.5901 158.197 69.8121C154.221 70.0951 152.658 70.6611 151.522 73.0666C151.444 73.2326 151.349 73.4351 151.238 73.6692C150.361 75.5326 148.537 79.406 146.754 82.9455C145.366 85.702 141.511 85.6743 139.499 83.3338Z" fill="url(#paint1_linear_47_1508)"/>
<defs>
<linearGradient id="paint0_linear_47_1508" x1="6.6767e-07" y1="216.5" x2="240.5" y2="-15.5" gradientUnits="userSpaceOnUse">
<stop stop-color="white"/>
<stop offset="1" stop-color="white"/>
</linearGradient>
<linearGradient id="paint1_linear_47_1508" x1="40" y1="161.515" x2="165.244" y2="36.2599" gradientUnits="userSpaceOnUse">
<stop stop-color="#31C035"/>
<stop offset="1" stop-color="#074422"/>
</linearGradient>
</defs>
</svg>
